<svg width="40" height="41" viewBox="0 0 40 41" fill="none" xmlns="http://www.w3.org/2000/svg">
<path d="M19.9999 35.5L17.5833 33.3333C14.7777 30.8056 12.4583 28.625 10.6249 26.7917C8.79158 24.9583 7.33325 23.3122 6.24992 21.8533C5.16659 20.3956 4.40992 19.0556 3.97992 17.8333C3.54992 16.6111 3.33436 15.3611 3.33325 14.0833C3.33325 11.4722 4.20825 9.29166 5.95825 7.54166C7.70825 5.79166 9.88881 4.91666 12.4999 4.91666C13.9444 4.91666 15.3194 5.22222 16.6249 5.83333C17.9305 6.44444 19.0555 7.30555 19.9999 8.41666C20.9444 7.30555 22.0694 6.44444 23.3749 5.83333C24.6805 5.22222 26.0555 4.91666 27.4999 4.91666C30.111 4.91666 32.2916 5.79166 34.0416 7.54166C35.7916 9.29166 36.6666 11.4722 36.6666 14.0833C36.6666 15.3611 36.451 16.6111 36.0199 17.8333C35.5888 19.0556 34.8321 20.3956 33.7499 21.8533C32.6666 23.3122 31.2083 24.9583 29.3749 26.7917C27.5416 28.625 25.2221 30.8056 22.4166 33.3333L19.9999 35.5ZM19.9999 31C22.6666 28.6111 24.861 26.5622 26.5833 24.8533C28.3055 23.1444 29.6666 21.6589 30.6666 20.3967C31.6666 19.1322 32.361 18.0067 32.7499 17.02C33.1388 16.0333 33.3333 15.0544 33.3333 14.0833C33.3333 12.4167 32.7777 11.0278 31.6666 9.91666C30.5555 8.80555 29.1666 8.25 27.4999 8.25C26.1944 8.25 24.986 8.61777 23.8749 9.35333C22.7638 10.0889 21.9999 11.0267 21.5833 12.1667H18.4166C17.9999 11.0278 17.236 10.09 16.1249 9.35333C15.0138 8.61666 13.8055 8.24889 12.4999 8.25C10.8333 8.25 9.44436 8.80555 8.33325 9.91666C7.22214 11.0278 6.66659 12.4167 6.66659 14.0833C6.66659 15.0556 6.86103 16.035 7.24992 17.0217C7.63881 18.0083 8.33325 19.1333 9.33325 20.3967C10.3333 21.66 11.6944 23.1461 13.4166 24.855C15.1388 26.5639 17.3333 28.6122 19.9999 31Z" fill="white"/>
</svg>
