<svg width="40" height="41" viewBox="0 0 40 41" fill="none" xmlns="http://www.w3.org/2000/svg">
<path d="M30.0001 3.83333C30.8841 3.83333 31.732 4.18452 32.3571 4.80964C32.9822 5.43477 33.3334 6.28261 33.3334 7.16667V33.8333C33.3334 34.7174 32.9822 35.5652 32.3571 36.1904C31.732 36.8155 30.8841 37.1667 30.0001 37.1667H10.0001C9.11603 37.1667 8.26818 36.8155 7.64306 36.1904C7.01794 35.5652 6.66675 34.7174 6.66675 33.8333V7.16667C6.66675 6.28261 7.01794 5.43477 7.64306 4.80964C8.26818 4.18452 9.11603 3.83333 10.0001 3.83333H30.0001ZM30.0001 7.16667H21.6667V20.5L17.5001 16.75L13.3334 20.5V7.16667H10.0001V33.8333H30.0001V7.16667Z" fill="white"/>
</svg>
