<svg width="40" height="41" viewBox="0 0 40 41" fill="none" xmlns="http://www.w3.org/2000/svg">
<path fill-rule="evenodd" clip-rule="evenodd" d="M26.6668 15.5C26.6668 17.2681 25.9645 18.9638 24.7142 20.214C23.464 21.4643 21.7683 22.1667 20.0002 22.1667C18.2321 22.1667 16.5364 21.4643 15.2861 20.214C14.0359 18.9638 13.3335 17.2681 13.3335 15.5C13.3335 13.7319 14.0359 12.0362 15.2861 10.7859C16.5364 9.53571 18.2321 8.83333 20.0002 8.83333C21.7683 8.83333 23.464 9.53571 24.7142 10.7859C25.9645 12.0362 26.6668 13.7319 26.6668 15.5ZM23.3335 15.5C23.3335 16.3841 22.9823 17.2319 22.3572 17.857C21.7321 18.4821 20.8842 18.8333 20.0002 18.8333C19.1161 18.8333 18.2683 18.4821 17.6431 17.857C17.018 17.2319 16.6668 16.3841 16.6668 15.5C16.6668 14.6159 17.018 13.7681 17.6431 13.143C18.2683 12.5179 19.1161 12.1667 20.0002 12.1667C20.8842 12.1667 21.7321 12.5179 22.3572 13.143C22.9823 13.7681 23.3335 14.6159 23.3335 15.5Z" fill="white"/>
<path fill-rule="evenodd" clip-rule="evenodd" d="M20.0001 2.16666C9.87508 2.16666 1.66675 10.375 1.66675 20.5C1.66675 30.625 9.87508 38.8333 20.0001 38.8333C30.1251 38.8333 38.3334 30.625 38.3334 20.5C38.3334 10.375 30.1251 2.16666 20.0001 2.16666ZM5.00008 20.5C5.00008 23.9833 6.18841 27.19 8.18008 29.7367C9.5788 27.8998 11.3832 26.4112 13.4525 25.3872C15.5217 24.3631 17.7997 23.8313 20.1084 23.8333C22.3873 23.8312 24.6366 24.3492 26.685 25.348C28.7333 26.3467 30.5267 27.7999 31.9284 29.5967C33.3725 27.7027 34.3448 25.492 34.7649 23.1476C35.185 20.8033 35.0408 18.3926 34.3442 16.115C33.6477 13.8374 32.4188 11.7584 30.7592 10.0501C29.0997 8.34171 27.0572 7.0531 24.8007 6.29084C22.5443 5.52859 20.1387 5.31462 17.7832 5.66662C15.4276 6.01862 13.1897 6.92648 11.2547 8.31509C9.31966 9.70369 7.7431 11.5331 6.65546 13.652C5.56783 15.7709 5.00038 18.1183 5.00008 20.5ZM20.0001 35.5C16.5567 35.5052 13.2172 34.3206 10.5467 32.1467C11.6216 30.6079 13.0523 29.3515 14.7171 28.4845C16.3818 27.6174 18.2314 27.1653 20.1084 27.1667C21.962 27.1652 23.7892 27.6059 25.4383 28.4524C27.0874 29.2988 28.5107 30.5264 29.5901 32.0333C26.8989 34.2778 23.5044 35.5049 20.0001 35.5Z" fill="white"/>
</svg>
