<svg width="82" height="38" viewBox="0 0 82 38" fill="none" xmlns="http://www.w3.org/2000/svg">
<rect x="8" y="6" width="67" height="28" fill="white"/>
<g clip-path="url(#clip0_328_5678)">
<path d="M40.88 14H39V24H41.185C43 24 44.394 23.787 45.369 22.871C46.345 21.955 46.832 20.746 46.832 18.999C46.832 17.253 46.345 16.131 45.369 15.19C44.395 14.249 42.897 14 40.88 14Z" fill="#FF0000"/>
<path d="M28.123 14.462C27.503 14.03 26.541 14 25.235 14H23V20H25.642C26.965 20 27.864 19.535 28.339 19.001C28.814 18.467 29.051 17.682 29.051 16.655C29.051 15.629 28.741 14.895 28.123 14.462Z" fill="#FF0000"/>
<path d="M77 0H5C2.239 0 0 2.238 0 5V33C0 35.762 2.239 38 5 38H77C79.762 38 82 35.762 82 33V5C82 2.238 79.762 0 77 0ZM31.201 21.493C29.92 22.511 27.965 23 25.337 23H23V28H19V10H25.286C28.016 10 30.005 10.64 31.251 11.699C32.497 12.758 33.121 14.431 33.121 16.628C33.121 18.825 32.481 20.476 31.201 21.493ZM48.346 25.584C46.692 27.195 44.17 28 40.778 28H35V10H40.981C44.152 10 46.585 10.885 48.282 12.437C49.979 13.989 50.826 16.202 50.826 18.966C50.826 21.73 50 23.973 48.346 25.584ZM65 14H57V18H65V21H57V28H53V10H65V14Z" fill="#FF0000"/>
<rect x="77" width="5" height="38" fill="#FF0000"/>
</g>
<defs>
<clipPath id="clip0_328_5678">
<rect width="82" height="38" fill="white"/>
</clipPath>
</defs>
</svg>
