<svg width="35" height="36" viewBox="0 0 35 36" fill="none" xmlns="http://www.w3.org/2000/svg">
<path fill-rule="evenodd" clip-rule="evenodd" d="M12.2762 5.23958C12.6845 4.37917 13.5654 3.78125 14.5833 3.78125H20.4166C21.4345 3.78125 22.3139 4.37917 22.7237 5.23958C23.7197 5.24833 24.497 5.29354 25.1912 5.56479C26.0199 5.88894 26.7406 6.43981 27.2708 7.15438C27.806 7.87479 28.0583 8.79792 28.4025 10.0681L29.4845 14.0377L29.8929 15.2642L29.9279 15.3079C31.2418 16.9908 30.6162 19.4933 29.365 24.4969C28.5687 27.6804 28.172 29.2715 26.985 30.199C25.7979 31.125 24.1572 31.125 20.876 31.125H14.1239C10.8427 31.125 9.20204 31.125 8.01496 30.199C6.82787 29.2715 6.42975 27.6804 5.63496 24.4969C4.38371 19.4933 3.75808 16.9908 5.07204 15.3079L5.10704 15.2642L5.51537 14.0377L6.59746 10.0681C6.94308 8.79792 7.19537 7.87333 7.72912 7.15292C8.25956 6.43889 8.98022 5.88854 9.80871 5.56479C10.5029 5.29354 11.2787 5.24688 12.2762 5.23958ZM12.2791 7.43C11.3137 7.44021 10.9258 7.47667 10.605 7.60208C10.1587 7.77662 9.77051 8.07328 9.48496 8.45812C9.22829 8.80375 9.07662 9.28646 8.65371 10.8425L7.82246 13.889C9.30996 13.625 11.3429 13.625 14.1225 13.625H20.876C23.657 13.625 25.6885 13.625 27.176 13.8875L26.3462 10.841C25.9233 9.285 25.7716 8.80229 25.515 8.45667C25.2294 8.07183 24.8413 7.77516 24.395 7.60063C24.0741 7.47521 23.6862 7.43875 22.7208 7.42854C22.5137 7.86436 22.1874 8.23255 21.7795 8.49041C21.3717 8.74827 20.8991 8.88523 20.4166 8.88542H14.5833C14.1009 8.88537 13.6285 8.74862 13.2207 8.49103C12.8129 8.23343 12.4864 7.86555 12.2791 7.43Z" fill="white"/>
</svg>
