<svg width="150" height="150" viewBox="0 0 150 150" fill="none" xmlns="http://www.w3.org/2000/svg">
<path d="M64.0187 101.962L37.5 75.4375L46.3375 66.6L64.0187 84.275L99.3688 48.9187L108.212 57.7624L64.0187 101.95V101.962Z" fill="#15998E"/>
<path fill-rule="evenodd" clip-rule="evenodd" d="M6.25 75C6.25 37.0313 37.0313 6.25 75 6.25C112.969 6.25 143.75 37.0313 143.75 75C143.75 112.969 112.969 143.75 75 143.75C37.0313 143.75 6.25 112.969 6.25 75ZM75 131.25C67.6131 131.25 60.2986 129.795 53.4741 126.968C46.6495 124.141 40.4485 119.998 35.2252 114.775C30.0019 109.551 25.8586 103.351 23.0318 96.5259C20.2049 89.7014 18.75 82.3869 18.75 75C18.75 67.6131 20.2049 60.2986 23.0318 53.4741C25.8586 46.6495 30.0019 40.4485 35.2252 35.2252C40.4485 30.0019 46.6495 25.8586 53.4741 23.0318C60.2986 20.2049 67.6131 18.75 75 18.75C89.9184 18.75 104.226 24.6763 114.775 35.2252C125.324 45.7742 131.25 60.0816 131.25 75C131.25 89.9184 125.324 104.226 114.775 114.775C104.226 125.324 89.9184 131.25 75 131.25Z" fill="#15998E"/>
</svg>
