<svg width="75" height="75" viewBox="0 0 75 75" fill="none" xmlns="http://www.w3.org/2000/svg">
<rect x="0.5" y="0.5" width="74" height="74" rx="37" fill="#333333"/>
<rect x="0.5" y="0.5" width="74" height="74" rx="37" stroke="url(#paint0_linear_58_2669)"/>
<g clip-path="url(#clip0_58_2669)">
<path d="M37.5 18.5C27.1596 18.5 18.5 25.9246 18.5 35.3077C18.5 39.7362 20.4862 43.7086 23.6154 46.6799C23.2341 47.6739 22.6942 48.5993 22.0165 49.4203C21.1174 50.511 20.1241 51.5204 19.0481 52.4369C18.8121 52.6263 18.6406 52.8842 18.5575 53.1751C18.4743 53.4661 18.4834 53.7756 18.5837 54.0611C18.6839 54.3466 18.8703 54.594 19.1171 54.769C19.3639 54.9441 19.659 55.0382 19.9615 55.0385C23.1988 55.0385 25.5271 55.0019 27.6346 54.4451C29.52 53.9452 31.1408 52.8988 32.7953 51.4299C34.3007 51.7909 35.8543 52.1154 37.5 52.1154C47.8404 52.1154 56.5 44.6908 56.5 35.3077C56.5 25.9246 47.8404 18.5 37.5 18.5ZM37.5 21.4231C46.4519 21.4231 53.5769 27.7369 53.5769 35.3077C53.5769 42.8785 46.4519 49.1923 37.5 49.1923C35.9084 49.1923 34.2554 48.9175 32.75 48.5068C32.5093 48.4463 32.2571 48.4481 32.0172 48.512C31.7774 48.576 31.5578 48.6999 31.3791 48.8722C29.7348 50.4492 28.5232 51.1844 26.9038 51.6126C26.1585 51.8099 24.7203 51.7632 23.706 51.8421C23.9106 51.6112 24.1021 51.4884 24.3008 51.2472C25.4496 49.8442 26.4975 48.3607 26.8132 46.6799C26.8567 46.4276 26.8332 46.1683 26.7449 45.928C26.6567 45.6876 26.5069 45.4747 26.3105 45.3105C23.2485 42.782 21.4231 39.2378 21.4231 35.3077C21.4231 27.7369 28.5481 21.4231 37.5 21.4231ZM34.7143 27.1318C34.457 27.1896 34.2202 27.3158 34.0288 27.4972L31.8365 29.5536L33.8008 31.6992L35.5357 30.0549H39.0522L40.4231 31.61V33.757L36.6772 36.2679C36.4769 36.4043 36.3137 36.5883 36.2022 36.8033C36.0908 37.0184 36.0345 37.2578 36.0385 37.5V40.4231H38.9615V38.3214L42.7075 35.8105C42.9079 35.674 43.0712 35.4898 43.1827 35.2744C43.2942 35.0591 43.3504 34.8194 43.3462 34.5769V31.0605C43.3442 30.7072 43.2144 30.3666 42.9808 30.1017L40.7885 27.6346C40.652 27.4776 40.4837 27.3516 40.2947 27.2649C40.1056 27.1782 39.9003 27.1328 39.6923 27.1318H35.0329C34.927 27.1202 34.8202 27.1202 34.7143 27.1318ZM36.0385 41.8846V44.8077H38.9615V41.8846H36.0385Z" fill="white"/>
</g>
<defs>
<linearGradient id="paint0_linear_58_2669" x1="75" y1="75" x2="-14.9298" y2="29.5244" gradientUnits="userSpaceOnUse">
<stop stop-color="#C0DCEC"/>
<stop offset="1" stop-color="white"/>
</linearGradient>
<clipPath id="clip0_58_2669">
<rect width="38" height="38" fill="white" transform="translate(18.5 18.5)"/>
</clipPath>
</defs>
</svg>
