<svg width="35" height="36" viewBox="0 0 35 36" fill="none" xmlns="http://www.w3.org/2000/svg">
<path d="M4.60468 19.1605L17.5 32.2188L30.3953 19.1605C31.9445 17.5799 32.8122 15.4549 32.8122 13.2417C32.8122 11.0284 31.9445 8.90343 30.3953 7.32282C29.6325 6.54753 28.7231 5.9318 27.72 5.51151C26.7168 5.09121 25.6401 4.87476 24.5525 4.87476C23.4649 4.87476 22.3881 5.09121 21.385 5.51151C20.3819 5.9318 19.4725 6.54753 18.7097 7.32282L17.5 8.55439L16.2903 7.32282C15.5275 6.54753 14.6181 5.9318 13.615 5.51151C12.6118 5.09121 11.5351 4.87476 10.4475 4.87476C9.35988 4.87476 8.28314 5.09121 7.28002 5.51151C6.2769 5.9318 5.36745 6.54753 4.60468 7.32282C3.05548 8.90343 2.18774 11.0284 2.18774 13.2417C2.18774 15.4549 3.05548 17.5799 4.60468 19.1605ZM28.8258 17.6117L17.5 29.0742V11.6891C18.426 10.7499 19.3524 9.81147 20.2792 8.87376C20.8368 8.30621 21.5018 7.85542 22.2355 7.54769C22.9692 7.23997 23.7569 7.08148 24.5525 7.08148C25.3481 7.08148 26.1357 7.23997 26.8694 7.54769C27.6031 7.85542 28.2682 8.30621 28.8258 8.87376C29.969 10.0407 30.6092 11.6092 30.6092 13.2427C30.6092 14.8763 29.969 16.4448 28.8258 17.6117Z" fill="white"/>
</svg>
