<svg width="56" height="56" viewBox="0 0 56 56" fill="none" xmlns="http://www.w3.org/2000/svg">
<path d="M10.3833 32.4519L26.607 47.6909C27.167 48.2159 27.447 48.4796 27.7736 48.5449C27.9223 48.5742 28.0753 48.5742 28.224 48.5449C28.5553 48.4796 28.833 48.2183 29.3906 47.6909L45.6143 32.4543C47.8179 30.3853 49.1704 27.5687 49.4073 24.5553C49.6442 21.5419 48.7485 18.5486 46.8953 16.1606L46.172 15.2296C41.58 9.31228 32.3633 10.3039 29.1363 17.0659C29.0336 17.2802 28.8725 17.4611 28.6714 17.5878C28.4704 17.7144 28.2376 17.7816 28 17.7816C27.7624 17.7816 27.5296 17.7144 27.3285 17.5878C27.1275 17.4611 26.9663 17.2802 26.8636 17.0659C23.6366 10.3039 14.42 9.30994 9.82797 15.2296L9.10464 16.1629C7.2528 18.5505 6.35787 21.5429 6.59476 24.5552C6.83165 27.5675 8.18334 30.3832 10.3856 32.4519H10.3833Z" fill="white" stroke="white" stroke-width="2"/>
</svg>
